<svg xmlns="http://www.w3.org/2000/svg" width="24" height="24" viewBox="0 0 44 44" fill="currentColor">
<path fill-rule="evenodd" clip-rule="evenodd" d="M22.0285 6.27436C22.8561 6.53592 24.8413 7.4192 25.6174 7.7665C27.1052 8.43111 28.6188 9.1343 30.1195 9.73459C30.7687 10.0053 31.4401 10.219 32.1262 10.3735C33.8971 10.7465 38.5321 11.3296 38.6265 8.54259C38.629 8.10947 38.4888 7.68757 38.2277 7.34202C37.1643 5.62691 34.6774 3.93753 32.928 2.94706C32.3277 2.6069 31.7189 2.29246 31.1014 2.00375C30.9387 1.94047 30.7727 1.88608 30.6041 1.84082C29.1719 1.41204 27.6798 1.02185 26.222 0.691695C25.0633 0.409044 23.8874 0.202786 22.7017 0.0742565C22.3493 0.0442583 21.995 0.0442583 21.6426 0.0742565C21.4883 0.0742565 21.2953 0.0742565 21.1324 0.0742565C17.5285 0.201261 14.0147 1.23346 10.9146 3.07569C9.56767 3.93619 8.29029 4.90104 7.09425 5.96136C6.867 6.15002 6.63974 6.33868 6.4082 6.52305C10.6831 4.19908 17.9766 2.93849 22.0285 6.27436Z" fill="#36CA66"/>
<path fill-rule="evenodd" clip-rule="evenodd" d="M22.0583 6.2573C21.7506 6.08089 21.416 5.95631 21.0678 5.88855C16.4456 4.17345 12.4923 3.29446 7.94299 5.6613L6.40797 6.51885C6.29049 6.59765 6.18131 6.68816 6.0821 6.78898C5.82309 7.05475 5.6348 7.38119 5.53443 7.73846C5.43406 8.09574 5.42482 8.47248 5.50754 8.83425C6.30507 11.707 10.7986 10.6608 12.6938 10.1806C15.438 9.4817 19.3656 7.46216 22.0583 6.2573Z" fill="#109E4C"/>
<path fill-rule="evenodd" clip-rule="evenodd" d="M8.41498 4.77818C17.9209 -2.51102 27.0839 0.2503 31.1015 2.00399L22.0286 6.29176C18.6842 5.03544 14.7995 3.97637 11.3092 4.51234C10.213 4.72193 9.15193 5.08572 8.15771 5.59285C7.4406 5.91508 6.75697 6.30716 6.11673 6.76341C6.03527 6.82773 6.24108 6.64764 6.24108 6.64764C6.91426 6.04736 7.61316 5.40419 8.32064 4.85107L8.41498 4.77818Z" fill="#5ED795"/>
<path fill-rule="evenodd" clip-rule="evenodd" d="M22.05 37.7033C21.2225 37.4417 19.2329 36.5584 18.4611 36.2111C16.9733 35.5465 15.4597 34.8433 13.959 34.243C13.3097 33.973 12.6383 33.7592 11.9523 33.6042C10.1772 33.2311 5.52068 32.648 5.44779 35.435C5.44528 35.8682 5.58541 36.2901 5.84655 36.6356C6.90991 38.3507 9.40111 40.0401 11.1505 41.0306C11.7451 41.3679 12.3539 41.6823 12.9771 41.9739C13.1396 42.0378 13.3057 42.0922 13.4745 42.1368C14.9023 42.5656 16.3987 42.9558 17.8523 43.2859C19.0111 43.5679 20.187 43.7741 21.3725 43.9034C21.7243 43.9405 22.0786 43.9477 22.4316 43.9248C22.586 43.9248 22.7832 43.9248 22.9419 43.9248C26.5471 43.7978 30.0623 42.7656 33.1639 40.9234C34.5087 40.0618 35.7846 39.097 36.98 38.0377L37.666 37.476C33.3911 39.7785 26.1019 41.0391 22.05 37.7033Z" fill="#36CA66"/>
<path fill-rule="evenodd" clip-rule="evenodd" d="M22.02 37.721C22.3262 37.8974 22.6594 38.022 23.0062 38.0898C27.6327 39.8049 31.5817 40.6881 36.131 38.317L37.6661 37.4595C37.7835 37.3807 37.8927 37.2902 37.9919 37.1893C38.2509 36.9236 38.4392 36.5971 38.5396 36.2398C38.64 35.8826 38.6492 35.5058 38.5665 35.1441C37.769 32.2713 33.2754 33.3175 31.3845 33.7977C28.636 34.5052 24.7084 36.5162 22.02 37.721Z" fill="#109E4C"/>
<path fill-rule="evenodd" clip-rule="evenodd" d="M35.6593 39.2213C26.1533 46.5105 16.9947 43.7492 12.9771 41.9955L22.05 37.7078C25.3944 38.9641 29.2791 40.0232 32.7694 39.4872C33.864 39.2769 34.9236 38.9131 35.9166 38.4067C36.6295 38.0799 37.3075 37.682 37.9404 37.219C38.0219 37.1546 37.8161 37.3347 37.8161 37.3347C37.1472 37.935 36.4483 38.5782 35.7408 39.1313L35.6593 39.2213Z" fill="#5ED795"/>
<path fill-rule="evenodd" clip-rule="evenodd" d="M22.0419 26.4865L22.3034 26.5551C22.4364 26.3192 29.8113 23.8709 30.4073 23.6737C31.8473 23.2029 33.3151 22.8219 34.8023 22.5331L37.1477 22.1987C38.1296 22.1301 38.434 21.9972 39.6732 22.233C43.202 22.919 43.3135 24.8614 43.6908 25.4574C43.7275 25.5078 43.7604 25.5608 43.7894 25.616C43.7894 25.616 43.7894 25.5946 43.7894 25.5775C43.8194 25.0115 43.9738 24.3383 44.0038 23.7766C44.1753 20.4536 44.2954 15.3597 40.6208 13.9147C36.1615 12.1739 27.2472 15.4369 22.0376 17.4822L22.0419 26.4865Z" fill="#5ED795"/>
<path fill-rule="evenodd" clip-rule="evenodd" d="M22.042 26.487C27.7233 27.8462 34.7509 32.3226 40.6252 30.0287C41.5115 29.6614 42.2775 29.0536 42.8367 28.274C43.3958 27.4943 43.7259 26.5739 43.7895 25.6165C43.8453 24.2831 43.0949 22.8981 39.6733 22.2335C37.3021 21.7747 32.6499 22.9453 30.4074 23.6742C29.8114 23.8714 22.1792 26.2554 22.042 26.487Z" fill="#128931"/>
<path fill-rule="evenodd" clip-rule="evenodd" d="M22.0416 17.4907L21.81 17.4307C21.6728 17.6665 14.2721 20.1062 13.6633 20.3035C12.2233 20.7743 10.7555 21.1552 9.26833 21.444L6.92292 21.7785C6.2541 21.8755 5.576 21.8913 4.90338 21.8256C4.74902 21.8042 4.59038 21.7827 4.39743 21.7442C0.868599 21.0624 0.757119 19.1158 0.379796 18.5198C0.340655 18.471 0.307541 18.4178 0.281176 18.3611C0.281176 18.3611 0.281176 18.3826 0.281176 18.3997C0.251161 18.9657 0.0925141 19.6389 0.0667876 20.2006C-0.104723 23.5236 -0.22478 28.6217 3.44983 30.0624C7.90911 31.8032 16.8234 28.5403 22.033 26.495L22.0416 17.4907Z" fill="#5ED795"/>
<path fill-rule="evenodd" clip-rule="evenodd" d="M22.0419 17.491C16.3606 16.1361 9.33294 11.6554 3.45871 13.9493C2.57235 14.3166 1.80634 14.9244 1.24718 15.704C0.688016 16.4837 0.357977 17.4041 0.294336 18.3614C0.238595 19.6949 0.984668 21.0799 4.41059 21.7445C4.53922 21.7702 4.67643 21.8002 4.83937 21.8174C7.33056 22.1004 11.867 21.0884 13.9852 20.3981C14.564 20.2009 21.9047 17.7268 22.0419 17.491Z" fill="#128931"/>
<path fill-rule="evenodd" clip-rule="evenodd" d="M22.042 26.4869C19.7952 25.4879 12.3302 23.2068 4.97239 21.839C4.4793 21.7447 4.2349 21.6761 3.74609 21.5903C4.78793 21.8546 5.87047 21.9186 6.93619 21.779C12.1287 21.0415 17.1411 19.3092 22.042 17.4912C24.4388 18.5589 32.4955 21.0629 40.3379 22.3878C39.2942 22.1257 38.2107 22.0617 37.1435 22.1992C32.547 22.8509 26.5699 24.8404 22.0977 26.4869C22.0163 26.4655 22.1234 26.5212 22.042 26.4869Z" fill="#109E4C"/>
</svg>